<?xml version="1.0" standalone="no"?>
<!DOCTYPE svg PUBLIC "-//W3C//DTD SVG 20010904//EN"
 "http://www.w3.org/TR/2001/REC-SVG-20010904/DTD/svg10.dtd">
<svg version="1.0" xmlns="http://www.w3.org/2000/svg"
 width="308.000000pt" height="499.000000pt" viewBox="0 0 308.000000 499.000000"
 preserveAspectRatio="xMidYMid meet">
<metadata>
Created by potrace 1.16, written by Peter Selinger 2001-2019
</metadata>
<g transform="translate(0.000000,499.000000) scale(0.100000,-0.100000)"
fill="#fff" stroke="none">
<path d="M830 4961 c-81 -25 -140 -64 -204 -131 -71 -74 -113 -161 -126 -261
-5 -41 -10 -397 -10 -811 l0 -738 -42 0 c-195 0 -388 -175 -427 -386 -14 -76
-15 -1111 -1 -1185 23 -121 116 -257 217 -316 107 -63 129 -67 387 -73 l239
-5 271 -483 c149 -266 284 -496 299 -511 40 -40 95 -56 141 -41 20 6 49 22 65
35 16 14 141 226 302 514 l274 491 215 0 c161 0 231 4 275 15 182 48 326 202
355 381 14 83 13 1105 -1 1179 -23 128 -98 239 -207 310 -75 48 -154 75 -219
75 l-43 0 0 758 c0 821 -1 836 -55 943 -35 67 -124 161 -189 198 -109 62 -97
61 -810 60 -594 0 -656 -2 -706 -18z m1361 -81 c55 -11 140 -49 146 -66 2 -5
-110 -40 -249 -77 -139 -37 -530 -141 -868 -232 -338 -91 -619 -165 -623 -165
-5 0 -7 62 -5 138 3 122 6 143 29 193 47 99 158 188 261 208 63 13 1244 13
1309 1z m221 -132 c31 -37 68 -123 74 -175 l6 -48 -928 -248 c-511 -136 -939
-251 -952 -254 l-22 -5 0 139 0 139 878 236 c482 130 888 237 900 237 13 1 33
-9 44 -21z m78 -383 c0 -63 -2 -115 -4 -115 -2 0 -219 -58 -483 -129 -457
-123 -1029 -276 -1291 -346 l-122 -33 0 117 0 117 933 251 c512 138 940 251
950 252 15 1 17 -11 17 -114z m0 -280 l0 -124 -52 -15 c-29 -8 -451 -121 -937
-251 -486 -130 -890 -239 -898 -242 -11 -4 -13 17 -11 122 l3 128 830 222
c457 122 880 236 940 252 61 17 113 31 118 32 4 0 7 -55 7 -124z m-4 -422 c-3
-3 -128 -38 -278 -78 -823 -221 -1585 -426 -1600 -431 -17 -5 -18 5 -18 125
l0 130 53 15 c28 8 273 74 542 145 270 72 672 179 895 239 l405 109 3 -125 c1
-68 0 -127 -2 -129z m4 -338 l0 -295 -950 0 -950 0 0 39 c0 39 1 40 52 54 29
8 456 123 948 255 492 132 896 240 898 241 1 1 2 -132 2 -294z m221 -411 c103
-31 196 -120 241 -232 22 -56 23 -63 26 -590 2 -352 0 -558 -8 -605 -14 -91
-47 -161 -107 -221 -58 -59 -122 -92 -204 -106 -87 -14 -2151 -14 -2238 0
-167 28 -288 155 -312 330 -6 43 -9 286 -7 603 3 526 4 533 26 589 29 72 78
136 139 181 94 69 27 66 1269 66 1001 1 1126 -1 1175 -15z m-611 -1870 c0 -3
-116 -213 -257 -465 -273 -488 -270 -485 -331 -463 -19 7 -74 97 -251 414
-124 223 -241 431 -259 463 l-32 57 565 0 c311 0 565 -3 565 -6z"/>
<path d="M629 2481 c-35 -35 -39 -44 -39 -91 0 -46 4 -56 34 -86 31 -31 40
-34 91 -34 51 0 60 3 91 34 30 30 34 40 34 88 -1 80 -48 128 -129 128 -37 0
-49 -6 -82 -39z"/>
<path d="M2254 2501 c-38 -23 -44 -32 -54 -78 -11 -47 5 -97 41 -127 24 -21
41 -26 83 -26 81 0 126 46 126 130 0 32 -7 48 -33 76 -28 31 -41 37 -83 41
-37 3 -57 -1 -80 -16z"/>
<path d="M850 2018 c0 -58 33 -190 65 -262 81 -184 235 -330 412 -391 289
-101 617 46 772 345 49 94 79 192 87 281 l7 69 -672 0 -671 0 0 -42z m1258
-80 c-24 -132 -114 -297 -210 -383 -302 -271 -727 -169 -913 220 -26 54 -65
180 -65 211 0 2 269 4 599 4 l598 0 -9 -52z"/>
</g>
</svg>
