<?xml version="1.0" encoding="utf-8"?>
<svg viewBox="0 0 308 499" xmlns="http://www.w3.org/2000/svg">
  <path stroke-width="0" d="M 111.21 6.129 C 114.215 5.749 116.172 5.474 118.718 6.129 C 119.253 6.267 119.81 6.513 120.378 6.823 C 121.117 6.52 121.903 6.295 122.761 6.129 C 125.382 5.622 129.25 5.684 132.002 6.706 C 132.889 7.035 133.823 7.553 134.725 8.16 C 137.102 8.087 139.867 8.293 141.242 8.439 C 142.388 8.561 142.126 8.992 143.553 9.016 C 147.07 9.076 156.596 6.686 166.077 6.129 C 179.103 5.363 205.086 5.153 216.323 6.129 C 223.201 6.726 226.348 6.925 230.762 9.016 C 235.327 11.179 240.394 15.838 243.179 19.124 C 245.345 21.677 246.566 24.062 247.222 26.632 C 247.83 29.011 248.022 31.471 247.283 33.943 C 248.701 35.068 249.902 36.149 250.687 37.027 C 252.347 38.883 252.475 39.639 252.998 42.225 C 253.856 46.471 254.769 56.234 253.575 61.862 C 252.945 64.834 251.347 66.631 249.83 68.911 C 250.455 70.051 250.878 71.313 251.265 73.156 C 252.218 77.69 251.937 85.034 251.843 92.793 C 251.723 102.598 250.122 113.7 250.11 128.023 C 250.094 146.857 253.372 179.914 252.998 197.906 C 252.961 199.71 252.933 201.36 252.905 202.898 C 255.63 202.309 258.265 201.892 260.217 201.66 C 263.147 201.312 264.999 201.087 267.368 201.619 C 269.97 201.152 273.491 201.137 276.388 202.238 C 279.688 203.492 283.425 206.698 285.918 209.457 C 288.248 212.037 290.301 215.269 291.116 218.12 C 291.257 218.612 291.373 219.101 291.464 219.587 C 291.748 219.84 292.021 220.117 292.271 220.43 C 294.141 222.766 296.429 225.564 297.469 230.249 C 298.983 237.072 299.009 251.122 297.599 260.071 C 298.428 261.293 298.839 262.444 299.201 264.324 C 299.834 267.61 300.79 273.364 299.302 277.89 C 299.694 278.341 300.049 278.824 300.356 279.34 C 302.198 282.436 302.551 286.293 302.667 292.046 C 302.844 300.829 299.022 319.597 298.624 329.009 C 298.342 335.659 299.994 339.096 299.201 344.603 C 298.315 350.762 295.397 359.341 292.848 364.24 C 290.889 368.004 288.701 370.366 286.207 372.614 C 283.856 374.733 280.414 375.827 278.41 377.523 C 276.752 378.926 276.951 380.649 274.656 381.855 C 270.825 383.866 259.557 386.786 254.442 385.897 C 253.461 385.727 252.532 385.452 251.661 385.089 C 250.858 385.415 250.059 385.676 249.244 385.897 C 246.657 386.6 244.274 386.707 241.736 385.897 C 241.089 385.691 240.384 385.426 239.658 385.107 C 238.833 385.485 237.938 385.635 236.538 385.897 C 232.547 386.644 223.327 387.258 218.634 385.897 C 217.939 385.696 217.264 385.465 216.614 385.205 C 216.063 387.114 215.489 388.871 214.88 390.436 C 212.057 397.685 209.943 402.876 205.928 405.741 C 204.814 406.535 203.483 407.135 202.063 407.56 C 201.02 412.89 199.27 419.487 197.553 423.149 C 195.965 426.536 194.754 428.77 192.067 430.369 C 191.184 430.894 190.073 431.368 188.849 431.761 C 186.459 437.966 183.958 443.827 181.959 447.984 C 178.047 456.121 171.717 461.058 169.831 466.465 C 169.51 467.387 169.36 468.282 169.309 469.153 C 169.745 471.065 169.869 473.142 169.614 475.074 C 169.606 475.877 169.513 476.664 169.253 477.439 C 168.144 480.747 166.138 484.5 163.189 486.391 C 160.023 488.421 154.184 489.453 150.483 488.701 C 149.328 488.466 148.163 487.973 147.052 487.333 C 143.295 485.991 139.379 483.447 136.911 480.326 C 133.563 476.094 131.979 467.888 131.135 463 C 130.974 462.067 130.838 461.183 130.737 460.336 C 129.633 458.313 129.325 456.27 128.825 453.182 C 128.609 451.847 128.605 450.216 128.689 448.419 C 128.44 448.378 128.196 448.329 127.959 448.273 C 123.887 447.305 119.472 443.18 116.697 439.898 C 115.901 438.957 115.177 437.917 114.532 436.832 C 114.08 436.346 113.645 435.827 113.231 435.278 C 110.241 431.313 107.749 422.437 106.878 417.951 C 106.271 414.821 106.11 412.939 106.878 410.443 C 106.916 410.321 106.956 410.198 107 410.073 C 105.459 409.026 104.055 407.664 102.836 406.08 C 99.967 402.351 100.672 393.247 96.771 390.197 C 92.776 387.073 83.734 388.078 78.867 387.887 C 75.482 387.753 73.051 389.018 70.425 388.633 C 69.246 389.474 68.212 389.78 66.161 390.197 C 62 391.043 53.046 391.427 47.102 390.775 C 41.547 390.165 35.991 388.928 31.509 386.732 C 27.323 384.681 24.287 382.562 20.824 378.357 C 16.221 372.768 10.159 364.502 7.541 354.1 C 4.185 340.77 5.237 315.442 6.385 302.699 C 7.184 293.837 10.808 288.862 11.006 282.485 C 11.188 276.594 8.619 271.708 8.118 265.736 C 7.575 259.262 7 251.496 8.118 244.944 C 9.196 238.624 11.498 232.197 14.471 227.04 C 15.101 225.947 15.771 224.901 16.479 223.895 C 16.338 222.293 16.415 220.701 16.781 219.275 C 17.939 214.768 23.857 208.875 26.888 206.281 C 28.973 204.496 30.395 203.831 32.664 203.393 C 35.285 202.886 39.152 202.949 41.905 203.97 C 42.282 204.11 42.663 204.264 43.042 204.433 C 46.343 203.891 49.41 204.385 52.3 205.382 C 52.812 205.558 53.339 205.784 53.873 206.047 C 53.955 204.542 54.114 203.044 54.322 201.628 C 54.9 197.686 57.014 194.369 57.787 190.077 C 58.657 185.246 58.973 179.849 58.942 173.906 C 58.907 167.119 57.392 158.715 57.209 151.382 C 57.033 144.287 59.151 135.378 57.787 130.59 C 56.827 127.217 53.567 126.36 52.589 123.659 C 51.561 120.818 51.615 118.163 52.012 113.841 C 52.607 107.351 57.278 95.793 57.787 87.274 C 58.265 79.276 55.121 68.039 55.477 64.172 C 55.636 62.442 56.414 62.854 56.632 61.284 C 57.047 58.292 55.312 50.836 56.054 45.691 C 56.812 40.438 58.626 34.844 61.252 30.097 C 63.903 25.306 67.984 20.577 71.937 17.102 C 75.637 13.849 80.154 10.872 84.065 9.594 C 87.436 8.492 91.67 8.897 93.884 9.016 C 95.25 9.09 95.274 9.675 96.771 9.594 C 99.632 9.438 107.263 6.628 111.21 6.129 Z M 98.793 291.18 C 98.477 291.28 99.133 299.781 99.948 300.421 C 100.396 300.772 101.51 300.065 101.681 299.266 C 101.981 297.857 99.099 291.083 98.793 291.18 Z" style="stroke-width: 2px; fill: rgb(255, 255, 255);"/>
  <g transform="matrix(0.10000000149011612, 0, 0, -0.10000000149011612, 0, 499)" fill="#000000" stroke="none">
    <path d="M830 4961 c-81 -25 -140 -64 -204 -131 -71 -74 -113 -161 -126 -261 -5 -41 -10 -397 -10 -811 l0 -738 -42 0 c-195 0 -388 -175 -427 -386 -14 -76 -15 -1111 -1 -1185 23 -121 116 -257 217 -316 107 -63 129 -67 387 -73 l239 -5 271 -483 c149 -266 284 -496 299 -511 40 -40 95 -56 141 -41 20 6 49 22 65 35 16 14 141 226 302 514 l274 491 215 0 c161 0 231 4 275 15 182 48 326 202 355 381 14 83 13 1105 -1 1179 -23 128 -98 239 -207 310 -75 48 -154 75 -219 75 l-43 0 0 758 c0 821 -1 836 -55 943 -35 67 -124 161 -189 198 -109 62 -97 61 -810 60 -594 0 -656 -2 -706 -18z m1361 -81 c55 -11 140 -49 146 -66 2 -5 -110 -40 -249 -77 -139 -37 -530 -141 -868 -232 -338 -91 -619 -165 -623 -165 -5 0 -7 62 -5 138 3 122 6 143 29 193 47 99 158 188 261 208 63 13 1244 13 1309 1z m221 -132 c31 -37 68 -123 74 -175 l6 -48 -928 -248 c-511 -136 -939 -251 -952 -254 l-22 -5 0 139 0 139 878 236 c482 130 888 237 900 237 13 1 33 -9 44 -21z m78 -383 c0 -63 -2 -115 -4 -115 -2 0 -219 -58 -483 -129 -457 -123 -1029 -276 -1291 -346 l-122 -33 0 117 0 117 933 251 c512 138 940 251 950 252 15 1 17 -11 17 -114z m0 -280 l0 -124 -52 -15 c-29 -8 -451 -121 -937 -251 -486 -130 -890 -239 -898 -242 -11 -4 -13 17 -11 122 l3 128 830 222 c457 122 880 236 940 252 61 17 113 31 118 32 4 0 7 -55 7 -124z m-4 -422 c-3 -3 -128 -38 -278 -78 -823 -221 -1585 -426 -1600 -431 -17 -5 -18 5 -18 125 l0 130 53 15 c28 8 273 74 542 145 270 72 672 179 895 239 l405 109 3 -125 c1 -68 0 -127 -2 -129z m4 -338 l0 -295 -950 0 -950 0 0 39 c0 39 1 40 52 54 29 8 456 123 948 255 492 132 896 240 898 241 1 1 2 -132 2 -294z m221 -411 c103 -31 196 -120 241 -232 22 -56 23 -63 26 -590 2 -352 0 -558 -8 -605 -14 -91 -47 -161 -107 -221 -58 -59 -122 -92 -204 -106 -87 -14 -2151 -14 -2238 0 -167 28 -288 155 -312 330 -6 43 -9 286 -7 603 3 526 4 533 26 589 29 72 78 136 139 181 94 69 27 66 1269 66 1001 1 1126 -1 1175 -15z m-611 -1870 c0 -3 -116 -213 -257 -465 -273 -488 -270 -485 -331 -463 -19 7 -74 97 -251 414 -124 223 -241 431 -259 463 l-32 57 565 0 c311 0 565 -3 565 -6z" style=""/>
    <path d="M629 2481 c-35 -35 -39 -44 -39 -91 0 -46 4 -56 34 -86 31 -31 40 -34 91 -34 51 0 60 3 91 34 30 30 34 40 34 88 -1 80 -48 128 -129 128 -37 0 -49 -6 -82 -39z"/>
    <path d="M2254 2501 c-38 -23 -44 -32 -54 -78 -11 -47 5 -97 41 -127 24 -21 41 -26 83 -26 81 0 126 46 126 130 0 32 -7 48 -33 76 -28 31 -41 37 -83 41 -37 3 -57 -1 -80 -16z"/>
    <path d="M850 2018 c0 -58 33 -190 65 -262 81 -184 235 -330 412 -391 289 -101 617 46 772 345 49 94 79 192 87 281 l7 69 -672 0 -671 0 0 -42z m1258 -80 c-24 -132 -114 -297 -210 -383 -302 -271 -727 -169 -913 220 -26 54 -65 180 -65 211 0 2 269 4 599 4 l598 0 -9 -52z"/>
  </g>
</svg>